<svg xmlns="http://www.w3.org/2000/svg" version="1.1" xmlns:xlink="http://www.w3.org/1999/xlink" xmlns:svgjs="http://svgjs.dev/svgjs" width="128" height="128" viewBox="0 0 128 128" style="background-color: #4182e4;"><g transform="matrix(0.8046875,0,0,0.8046875,12.333870967741937,12.333870967741937)"><svg viewBox="0 0 155 155" data-background-color="#ffffff" preserveAspectRatio="xMidYMid meet" height="128" width="128" xmlns="http://www.w3.org/2000/svg" xmlns:xlink="http://www.w3.org/1999/xlink"><g id="tight-bounds" transform="matrix(1,0,0,1,0.25,0.25)"><svg viewBox="0 0 154.5 154.5" height="154.5" width="154.5"><g><svg></svg></g><g><svg viewBox="0 0 154.5 154.5" height="154.5" width="154.5"><mask id="aa80c7b1-eebe-4ac2-be5e-a1bd683bc12f"><rect width="250" height="250" fill="white"></rect><g transform="matrix(1,0,0,1,55.03195716029292,43.83165)"><svg viewBox="0 0 44.436085679414155 66.8367" height="66.8367" width="44.436085679414155"><g><svg viewBox="0 0 44.436085679414155 66.8367" height="66.8367" width="44.436085679414155"><g><svg viewBox="0 0 44.436085679414155 66.8367" height="66.8367" width="44.436085679414155"><g id="SvgjsG6965"><svg viewBox="0 0 44.436085679414155 66.8367" height="66.8367" width="44.436085679414155" id="SvgjsSvg6964"><g><svg viewBox="0 0 44.436085679414155 66.8367" height="66.8367" width="44.436085679414155"><g transform="matrix(1,0,0,1,0,0)"><svg width="44.436085679414155" viewBox="-3.37 -41.01 34.519999999999996 51.41" height="66.8367" data-palette-color="#ffffff"><path d="M4.49-13.77L4.49-13.77Q4.57-14.58 4.91-15.3 5.25-16.02 5.8-16.54 6.35-17.07 7.04-17.38 7.74-17.7 8.52-17.7L8.52-17.7 16.43-17.7 16.43-32.86 0.63-32.86Q0.73-33.72 1.11-34.47 1.49-35.23 2.06-35.79 2.64-36.35 3.37-36.68 4.1-37.01 4.91-37.01L4.91-37.01 22.14-37.01 22.14-17.7 27.12-17.7 27.15-13.77 22.14-13.77 22.14 0.27Q22.14 1.54 21.75 2.66 21.36 3.78 20.7 4.61 20.04 5.44 19.19 5.92 18.33 6.4 17.41 6.4L17.41 6.4 16.43 6.4 16.43-13.77 4.49-13.77Z" opacity="1" transform="matrix(1,0,0,1,0,0)" fill="black" class="wordmark-text-0" id="SvgjsPath6963" stroke-width="7" stroke="black" stroke-linejoin="round"></path></svg></g></svg></g></svg></g></svg></g></svg></g></svg></g></mask><g transform="matrix(1,0,0,1,55.03195716029292,43.83165)"><svg viewBox="0 0 44.436085679414155 66.8367" height="66.8367" width="44.436085679414155"><g><svg viewBox="0 0 44.436085679414155 66.8367" height="66.8367" width="44.436085679414155"><g><svg viewBox="0 0 44.436085679414155 66.8367" height="66.8367" width="44.436085679414155"><g id="textblocktransform"><svg viewBox="0 0 44.436085679414155 66.8367" height="66.8367" width="44.436085679414155" id="textblock"><g><svg viewBox="0 0 44.436085679414155 66.8367" height="66.8367" width="44.436085679414155"><g transform="matrix(1,0,0,1,0,0)"><svg width="44.436085679414155" viewBox="-3.37 -41.01 34.519999999999996 51.41" height="66.8367" data-palette-color="#ffffff"><path d="M4.49-13.77L4.49-13.77Q4.57-14.58 4.91-15.3 5.25-16.02 5.8-16.54 6.35-17.07 7.04-17.38 7.74-17.7 8.52-17.7L8.52-17.7 16.43-17.7 16.43-32.86 0.63-32.86Q0.73-33.72 1.11-34.47 1.49-35.23 2.06-35.79 2.64-36.35 3.37-36.68 4.1-37.01 4.91-37.01L4.91-37.01 22.14-37.01 22.14-17.7 27.12-17.7 27.15-13.77 22.14-13.77 22.14 0.27Q22.14 1.54 21.75 2.66 21.36 3.78 20.7 4.61 20.04 5.44 19.19 5.92 18.33 6.4 17.41 6.4L17.41 6.4 16.43 6.4 16.43-13.77 4.49-13.77Z" opacity="1" transform="matrix(1,0,0,1,0,0)" fill="#ffffff" class="wordmark-text-0" data-fill-palette-color="primary" id="text-0"></path></svg></g></svg></g></svg></g></svg></g></svg></g></svg></g><g mask="url(#aa80c7b1-eebe-4ac2-be5e-a1bd683bc12f)"><g transform="matrix(1.525, 0, 0, 1.525, 1, 35.195075)"><svg version="1.0" xmlns="http://www.w3.org/2000/svg" xmlns:xlink="http://www.w3.org/1999/xlink" x="0" y="0" viewBox="0 0 100 55.154" enable-background="new 0 0 100 55.154" xml:space="preserve" width="100" height="55.154" class="icon-none" data-fill-palette-color="accent" id="none"><path d="M77.959 55.154H11.282C5.061 55.154 0 50.093 0 43.873c0-5.278 3.643-9.721 8.546-10.946 2.188-5.469 7.248-9.386 13.149-10.089C22.317 10.14 32.843 0 45.693 0c9.417 0 17.822 5.536 21.723 13.756 3.203-1.75 6.812-2.682 10.543-2.682 12.153 0 22.041 9.887 22.041 22.04C100 45.267 90.113 55.154 77.959 55.154L77.959 55.154zM11.209 40.372c-1.897 0.039-3.429 1.595-3.429 3.501 0 1.931 1.57 3.501 3.501 3.501h66.678c7.863 0 14.26-6.397 14.26-14.26 0-7.863-6.396-14.259-14.26-14.259-3.683 0-7.18 1.404-9.847 3.952l-5.096 4.871-1.404-6.908C60.083 13.243 53.388 7.78 45.693 7.78c-8.958 0-16.247 7.288-16.247 16.246 0 0.728 0.054 1.483 0.159 2.246l0.73 5.287-5.256-0.923c-0.498-0.087-0.993-0.132-1.474-0.132-4.002 0-7.479 2.842-8.267 6.757l-0.65 3.227-3.29-0.106C11.336 40.379 11.272 40.375 11.209 40.372L11.209 40.372z" fill="#ffffff" data-fill-palette-color="accent"></path></svg></g></g></svg></g><defs></defs></svg><rect width="154.5" height="154.5" fill="none" stroke="none" visibility="hidden"></rect></g></svg></g></svg>