<svg xmlns="http://www.w3.org/2000/svg" version="1.1" xmlns:xlink="http://www.w3.org/1999/xlink" xmlns:svgjs="http://svgjs.dev/svgjs" width="2000" height="1247" viewBox="0 0 2000 1247"><g transform="matrix(1,0,0,1,-1.2121212121212466,0.504858299595071)"><svg viewBox="0 0 396 247" data-background-color="#ffffff" preserveAspectRatio="xMidYMid meet" height="1247" width="2000" xmlns="http://www.w3.org/2000/svg" xmlns:xlink="http://www.w3.org/1999/xlink"><g id="tight-bounds" transform="matrix(1,0,0,1,0.2400000000000091,-0.09999999999999432)"><svg viewBox="0 0 395.52 247.2" height="247.2" width="395.52"><g><svg></svg></g><g><svg viewBox="0 0 395.52 247.2" height="247.2" width="395.52"><mask id="e7d7db57-ebcf-49c4-985c-95c9b4362cd1"><rect width="640" height="400" fill="white"></rect><g transform="matrix(1,0,0,1,78.6526314744989,37.08)"><svg viewBox="0 0 238.21473705100217 173.04" height="173.04" width="238.21473705100217"><g><svg viewBox="0 0 238.21473705100217 173.04" height="173.04" width="238.21473705100217"><g><svg viewBox="0 0 238.21473705100217 173.04" height="173.04" width="238.21473705100217"><g><svg viewBox="0 0 238.21473705100217 173.04" height="173.04" width="238.21473705100217"><g id="SvgjsG4684"><svg viewBox="0 0 238.21473705100217 173.04" height="173.04" width="238.21473705100217" id="SvgjsSvg4683"><g><svg viewBox="0 0 238.21473705100217 173.04" height="173.04" width="238.21473705100217"><g transform="matrix(1,0,0,1,0,0)"><svg width="238.21473705100217" viewBox="-3.37 -42.84 82.29 60.050000000000004" height="173.04" data-palette-color="#4182e4"><path d="M4.49-13.77L4.49-13.77Q4.57-14.58 4.91-15.3 5.25-16.02 5.8-16.54 6.35-17.07 7.04-17.38 7.74-17.7 8.52-17.7L8.52-17.7 16.43-17.7 16.43-32.86 0.63-32.86Q0.73-33.72 1.11-34.47 1.49-35.23 2.06-35.79 2.64-36.35 3.37-36.68 4.1-37.01 4.91-37.01L4.91-37.01 22.14-37.01 22.14-17.7 27.12-17.7 27.15-13.77 22.14-13.77 22.14 0.27Q22.14 1.54 21.75 2.66 21.36 3.78 20.7 4.61 20.04 5.44 19.19 5.92 18.33 6.4 17.41 6.4L17.41 6.4 16.43 6.4 16.43-13.77 4.49-13.77ZM33.32-6.2L33.32-38.84 39.16-38.84 39.16-4.17 44.36-4.17Q44.21-3.2 43.81-2.42 43.41-1.64 42.83-1.1 42.26-0.56 41.54-0.28 40.82 0 40.04 0L40.04 0 37.99 0Q37.03 0 36.18-0.49 35.32-0.98 34.69-1.82 34.06-2.66 33.69-3.78 33.32-4.91 33.32-6.2L33.32-6.2ZM48.26-6.2L48.26-25.56 54.1-25.56 54.1-4.17 64.16-4.17 64.16-25.56 69.99-25.56 69.99-4.17 74.92-4.17Q74.82-3.32 74.45-2.55 74.07-1.78 73.49-1.22 72.92-0.66 72.19-0.33 71.45 0 70.65 0L70.65 0 69.99 0 69.99 6.96Q69.99 8.25 69.62 9.39 69.26 10.52 68.62 11.36 67.99 12.21 67.15 12.71 66.3 13.21 65.35 13.21L65.35 13.21 53.54 13.21 53.54 8.98 64.16 8.98 64.16-2.61Q63.5-1.39 62.46-0.7 61.42 0 60.25 0L60.25 0 52.9 0Q51.95 0 51.09-0.49 50.24-0.98 49.62-1.82 48.99-2.66 48.63-3.78 48.26-4.91 48.26-6.2L48.26-6.2Z" opacity="1" transform="matrix(1,0,0,1,0,0)" fill="black" class="wordmark-text-0" id="SvgjsPath4682" stroke-width="7" stroke="black" stroke-linejoin="round"></path></svg></g></svg></g></svg></g></svg></g></svg></g></svg></g></svg></g></mask><g transform="matrix(1,0,0,1,78.6526314744989,37.08)"><svg viewBox="0 0 238.21473705100217 173.04" height="173.04" width="238.21473705100217"><g><svg viewBox="0 0 238.21473705100217 173.04" height="173.04" width="238.21473705100217"><g><svg viewBox="0 0 238.21473705100217 173.04" height="173.04" width="238.21473705100217"><g><svg viewBox="0 0 238.21473705100217 173.04" height="173.04" width="238.21473705100217"><g id="textblocktransform"><svg viewBox="0 0 238.21473705100217 173.04" height="173.04" width="238.21473705100217" id="textblock"><g><svg viewBox="0 0 238.21473705100217 173.04" height="173.04" width="238.21473705100217"><g transform="matrix(1,0,0,1,0,0)"><svg width="238.21473705100217" viewBox="-3.37 -42.84 82.29 60.050000000000004" height="173.04" data-palette-color="#4182e4"><path d="M4.49-13.77L4.49-13.77Q4.57-14.58 4.91-15.3 5.25-16.02 5.8-16.54 6.35-17.07 7.04-17.38 7.74-17.7 8.52-17.7L8.52-17.7 16.43-17.7 16.43-32.86 0.63-32.86Q0.73-33.72 1.11-34.47 1.49-35.23 2.06-35.79 2.64-36.35 3.37-36.68 4.1-37.01 4.91-37.01L4.91-37.01 22.14-37.01 22.14-17.7 27.12-17.7 27.15-13.77 22.14-13.77 22.14 0.27Q22.14 1.54 21.75 2.66 21.36 3.78 20.7 4.61 20.04 5.44 19.19 5.92 18.33 6.4 17.41 6.4L17.41 6.4 16.43 6.4 16.43-13.77 4.49-13.77ZM33.32-6.2L33.32-38.84 39.16-38.84 39.16-4.17 44.36-4.17Q44.21-3.2 43.81-2.42 43.41-1.64 42.83-1.1 42.26-0.56 41.54-0.28 40.82 0 40.04 0L40.04 0 37.99 0Q37.03 0 36.18-0.49 35.32-0.98 34.69-1.82 34.06-2.66 33.69-3.78 33.32-4.91 33.32-6.2L33.32-6.2ZM48.26-6.2L48.26-25.56 54.1-25.56 54.1-4.17 64.16-4.17 64.16-25.56 69.99-25.56 69.99-4.17 74.92-4.17Q74.82-3.32 74.45-2.55 74.07-1.78 73.49-1.22 72.92-0.66 72.19-0.33 71.45 0 70.65 0L70.65 0 69.99 0 69.99 6.96Q69.99 8.25 69.62 9.39 69.26 10.52 68.62 11.36 67.99 12.21 67.15 12.71 66.3 13.21 65.35 13.21L65.35 13.21 53.54 13.21 53.54 8.98 64.16 8.98 64.16-2.61Q63.5-1.39 62.46-0.7 61.42 0 60.25 0L60.25 0 52.9 0Q51.95 0 51.09-0.49 50.24-0.98 49.62-1.82 48.99-2.66 48.63-3.78 48.26-4.91 48.26-6.2L48.26-6.2Z" opacity="1" transform="matrix(1,0,0,1,0,0)" fill="#ffffff" class="wordmark-text-0" data-fill-palette-color="primary" id="text-0"></path></svg></g></svg></g></svg></g></svg></g></svg></g></svg></g></svg></g><g mask="url(#e7d7db57-ebcf-49c4-985c-95c9b4362cd1)"><g transform="matrix(3.9352, 0, 0, 3.9352, 1, 15.078989599999986)"><svg version="1.0" xmlns="http://www.w3.org/2000/svg" xmlns:xlink="http://www.w3.org/1999/xlink" x="0" y="0" viewBox="0 0 100 55.154" enable-background="new 0 0 100 55.154" xml:space="preserve" width="100" height="55.154" class="icon-none" data-fill-palette-color="accent" id="none"><path d="M77.959 55.154H11.282C5.061 55.154 0 50.093 0 43.873c0-5.278 3.643-9.721 8.546-10.946 2.188-5.469 7.248-9.386 13.149-10.089C22.317 10.14 32.843 0 45.693 0c9.417 0 17.822 5.536 21.723 13.756 3.203-1.75 6.812-2.682 10.543-2.682 12.153 0 22.041 9.887 22.041 22.04C100 45.267 90.113 55.154 77.959 55.154L77.959 55.154zM11.209 40.372c-1.897 0.039-3.429 1.595-3.429 3.501 0 1.931 1.57 3.501 3.501 3.501h66.678c7.863 0 14.26-6.397 14.26-14.26 0-7.863-6.396-14.259-14.26-14.259-3.683 0-7.18 1.404-9.847 3.952l-5.096 4.871-1.404-6.908C60.083 13.243 53.388 7.78 45.693 7.78c-8.958 0-16.247 7.288-16.247 16.246 0 0.728 0.054 1.483 0.159 2.246l0.73 5.287-5.256-0.923c-0.498-0.087-0.993-0.132-1.474-0.132-4.002 0-7.479 2.842-8.267 6.757l-0.65 3.227-3.29-0.106C11.336 40.379 11.272 40.375 11.209 40.372L11.209 40.372z" fill="#ffffff" data-fill-palette-color="accent"></path></svg></g></g></svg></g><defs></defs></svg><rect width="395.52" height="247.2" fill="none" stroke="none" visibility="hidden"></rect></g></svg></g></svg>